<svg width="16" height="11" viewBox="0 0 16 11" fill="none" xmlns="http://www.w3.org/2000/svg">
<path d="M6.96875 7.08594L6.96973 7.08691C7.26288 7.32598 7.63793 7.45117 8.02246 7.45117C8.40663 7.45115 8.78193 7.32558 9.0752 7.08594L9.07617 7.08496L10.0342 6.2959L14.9834 10.2568H1.01172L5.9707 6.2666L6.96875 7.08594ZM15.5996 8.87891L11.1885 5.34863L15.5996 1.72266V8.87891ZM4.81738 5.31934L0.400391 8.87402V1.69336L4.81738 5.31934ZM14.9082 0.400391L8.4541 5.70508L8.16504 5.94238L8.14453 5.95605L8.13965 5.95898C8.11148 5.97742 8.06945 5.99121 8.02344 5.99121H8.02051C7.95384 5.99121 7.91062 5.96981 7.89746 5.95898V5.95801L1.12695 0.400391H14.9082Z" stroke="white" stroke-width="0.8"/>
</svg>
