<svg width="17" height="16" viewBox="0 0 17 16" fill="none" xmlns="http://www.w3.org/2000/svg">
<path d="M3.25684 0.5C3.30365 0.5 3.32966 0.51082 3.35254 0.527344C3.41211 0.570628 3.46434 0.624678 3.50977 0.691406L5.30957 3.99902L5.31641 4.01172C5.35185 4.07291 5.36476 4.13599 5.34473 4.22852C5.31959 4.3442 5.27024 4.4302 5.19727 4.50098L4.36719 5.30566C4.31482 5.3564 4.27562 5.4127 4.24609 5.46582L4.18262 5.60938C4.15694 5.68402 4.12988 5.78467 4.12988 5.89551V5.94336L4.13965 5.99121C4.19709 6.28339 4.32 6.59178 4.49023 6.91113V6.91211C4.64368 7.20943 4.87157 7.55492 5.16211 7.94336C5.39143 8.24993 5.68668 8.58348 6.04395 8.94336L6.42188 9.3125C6.93849 9.82359 7.40926 10.2331 7.83301 10.5322C8.23805 10.8181 8.59301 11.0398 8.8916 11.1875C9.1639 11.3222 9.41731 11.427 9.62793 11.4678L9.83984 11.5088L9.88672 11.5186H9.93457C10.0436 11.5186 10.1481 11.4862 10.1992 11.4697C10.2783 11.4441 10.3996 11.395 10.5029 11.2949L10.5068 11.292L11.457 10.3545C11.5661 10.2638 11.6847 10.2208 11.833 10.2207C11.9756 10.2207 12.0311 10.2467 12.04 10.252L12.1562 10.3193H12.1738L15.3213 12.1191V12.1201C15.453 12.1991 15.4921 12.2677 15.5068 12.3174C15.5138 12.3936 15.4974 12.4539 15.4189 12.5303L13.165 14.6973L13.1543 14.707L13.1445 14.7178C13.1198 14.7444 13.0884 14.772 13.0488 14.7998L12.9014 14.8838C12.777 14.942 12.6629 14.9751 12.5605 14.9893C12.5322 14.9914 12.5031 14.9929 12.4805 14.9951C12.4463 14.9984 12.3898 15.001 12.3076 15.001C12.1327 15.0009 11.817 14.9703 11.3389 14.8994C10.9124 14.8362 10.3652 14.6767 9.68945 14.4053C9.03136 14.141 8.27099 13.7382 7.40625 13.1904C6.56261 12.6561 5.65179 11.9143 4.6748 10.957L4.66992 10.9521C3.89378 10.2109 3.25759 9.50881 2.75781 8.8457C2.24911 8.1707 1.84644 7.55418 1.54492 6.99609C1.23817 6.42831 1.01379 5.92374 0.867188 5.48242C0.714147 5.02168 0.615271 4.63827 0.564453 4.32812C0.510125 3.99653 0.493796 3.7678 0.501953 3.625C0.509184 3.49889 0.512773 3.39749 0.515625 3.33301C0.530121 3.24082 0.562797 3.13749 0.620117 3.02246C0.675176 2.91205 0.733649 2.83937 0.789062 2.79102L0.808594 2.77344L3.0625 0.588867C3.13582 0.517839 3.19476 0.500043 3.25684 0.5Z" stroke="white"/>
</svg>
