<svg width="11" height="16" viewBox="0 0 11 16" fill="none" xmlns="http://www.w3.org/2000/svg">
<path d="M1.96191 1.94336C3.91532 0.0191385 7.08502 0.0191985 9.03809 1.94336C9.90235 2.79487 10.4026 4.04519 10.4873 5.35254C10.572 6.65988 10.2377 7.97206 9.50195 8.93848L9.49609 8.94531L9.49121 8.95312L5.5 14.6309L1.50879 8.95312L1.50391 8.94531L1.49805 8.93848L1.36426 8.75293C0.721769 7.80775 0.433329 6.57805 0.512695 5.35254C0.597411 4.04519 1.09765 2.79487 1.96191 1.94336ZM5.55371 3.07715C4.28203 3.07715 3.23854 4.0944 3.23828 5.36523C3.23828 6.63629 4.28187 7.6543 5.55371 7.6543C6.82548 7.65421 7.86914 6.63624 7.86914 5.36523C7.86888 4.09445 6.82533 3.07723 5.55371 3.07715Z" stroke="white"/>
</svg>
