<svg width="146" height="144" viewBox="0 0 146 144" fill="none" xmlns="http://www.w3.org/2000/svg">
<path d="M24.3038 17.8509C24.3816 17.8509 24.4538 17.8298 24.5309 17.828L31.2497 74.0086C26.0325 74.1398 21.8238 78.3994 21.8238 83.643C21.8238 88.9692 26.16 93.3019 31.4906 93.3019H113.854C119.18 93.3019 123.513 88.9692 123.513 83.643C123.513 78.3968 119.303 74.1349 114.087 74.0079L120.806 17.8277C120.883 17.8298 120.955 17.8507 121.033 17.8507C125.956 17.8507 129.961 13.8452 129.961 8.92078C129.961 4.00219 125.956 0 121.033 0C116.114 0 112.112 4.00195 112.112 8.92078C112.112 11.6449 113.363 14.0576 115.29 15.6968L93.0471 38.8563L76.6242 16.8848C79.5577 15.42 81.5963 12.4177 81.5963 8.92102C81.5963 4.00242 77.5908 0.000234414 72.6687 0.000234414C67.7454 0.000234414 63.7399 4.00219 63.7399 8.92102C63.7399 12.4181 65.7788 15.4205 68.7129 16.8851L52.2891 38.8566L30.0488 15.6994C31.9793 14.0602 33.2323 11.6466 33.2323 8.92102C33.2323 4.00242 29.2268 0.000234414 24.3035 0.000234414C19.3802 0.000234414 15.3752 4.00242 15.3752 8.92102C15.3752 13.8455 19.3805 17.8509 24.3038 17.8509ZM121.033 4.68797C123.372 4.68797 125.274 6.58664 125.274 8.92125C125.274 11.2603 123.372 13.1637 121.033 13.1637C118.698 13.1637 116.799 11.2605 116.799 8.92125C116.8 6.58641 118.698 4.68797 121.033 4.68797ZM118.825 83.643C118.825 86.3838 116.595 88.6144 113.854 88.6144H31.4906C28.7452 88.6144 26.5113 86.3838 26.5113 83.643C26.5113 80.9023 28.7452 78.6717 31.4906 78.6717H113.854C116.595 78.6717 118.825 80.902 118.825 83.643ZM72.6689 4.68797C75.007 4.68797 76.909 6.58664 76.909 8.92125C76.909 11.2603 75.007 13.1637 72.6689 13.1637C70.3308 13.1637 68.4277 11.2605 68.4277 8.92125C68.4277 6.58641 70.3308 4.68797 72.6689 4.68797ZM52.6566 44.812C53.3445 44.7696 53.9773 44.4274 54.3893 43.8759L72.6689 19.4222L90.9473 43.8759C91.3594 44.4277 91.9922 44.7696 92.6801 44.812C93.3701 44.8521 94.0385 44.5922 94.5145 44.0967L115.564 22.1789L109.368 73.984H35.9688L29.7729 22.1789L50.8221 44.0967C51.2993 44.5934 51.971 44.8566 52.6566 44.812ZM24.3038 4.68797C26.6419 4.68797 28.545 6.58664 28.545 8.92125C28.545 11.2603 26.6419 13.1637 24.3038 13.1637C21.9656 13.1637 20.0625 11.2605 20.0625 8.92125C20.0627 6.58641 21.9659 4.68797 24.3038 4.68797Z" fill="#1A1A1A"/>
<path d="M84.415 66.7652C84.8235 67.5823 85.6417 68.0482 86.4944 68.0482C86.8492 68.0482 87.2109 67.9681 87.5519 67.7977C88.7099 67.2185 89.1712 65.7949 88.5921 64.6369C88.0141 63.4798 86.6064 63.0073 85.4472 63.5885C84.2892 64.1677 83.8199 65.5753 84.3988 66.7334L84.415 66.7652Z" fill="#1A1A1A"/>
<path d="M70.777 67.1233C71.2336 67.7323 71.9271 68.0503 72.6309 68.0503C73.1219 68.0503 73.6197 67.8959 74.0454 67.5755C75.0811 66.7994 75.2791 65.3142 74.5019 64.2785C73.7271 63.2463 72.2601 63.0333 71.2209 63.8105C70.1852 64.5865 69.9757 66.0558 70.7529 67.0915L70.777 67.1233Z" fill="#1A1A1A"/>
<path d="M56.6883 66.7652C57.0969 67.5823 57.9151 68.0482 58.7677 68.0482C59.1226 68.0482 59.4842 67.9681 59.8252 67.7977C60.9833 67.2185 61.4445 65.7949 60.8654 64.6369C60.2862 63.4798 58.8821 63.0073 57.7205 63.5885C56.5625 64.1677 56.0933 65.5753 56.6722 66.7334L56.6883 66.7652Z" fill="#1A1A1A"/>
<path d="M43.0263 67.0912L43.0505 67.1233C43.507 67.7323 44.2005 68.0503 44.9044 68.0503C45.3954 68.0503 45.8932 67.8959 46.3188 67.5755C47.3545 66.7994 47.5526 65.3142 46.7754 64.2785C46.0005 63.2463 44.5324 63.0333 43.4944 63.8105C42.4587 64.5862 42.2494 66.0555 43.0263 67.0912Z" fill="#1A1A1A"/>
<path d="M98.505 67.1233C98.9616 67.7323 99.6551 68.0503 100.359 68.0503C100.85 68.0503 101.348 67.8959 101.773 67.5755C102.809 66.7994 103.007 65.3142 102.23 64.2785C101.455 63.2463 99.9882 63.0333 98.9489 63.8105C97.9132 64.5865 97.7037 66.0558 98.4809 67.0915L98.505 67.1233Z" fill="#1A1A1A"/>
<path d="M87.0975 101.793H58.215C53.9955 101.793 50.5624 105.226 50.5624 109.446V135.939C50.5624 140.155 53.9955 143.585 58.215 143.585H87.0975C91.3122 143.585 94.7421 140.155 94.7421 135.939V109.446C94.7421 105.226 91.3125 101.793 87.0975 101.793ZM58.215 106.481H87.0975C88.7282 106.481 90.0546 107.811 90.0546 109.446V124.789L84.115 120.012C83.3128 119.369 82.1889 119.322 81.3365 119.894L72.8266 125.624L64.5171 118.466C63.6096 117.684 62.2579 117.711 61.3849 118.531L55.2496 124.276V109.446C55.2496 107.811 56.5795 106.481 58.215 106.481ZM87.0975 138.897H58.215C56.5795 138.897 55.2499 137.57 55.2499 135.939V130.699L63.0525 123.392L71.1023 130.327L74.8903 133.821C75.34 134.236 75.91 134.441 76.4775 134.441C77.1091 134.441 77.7398 134.187 78.201 133.685C79.0788 132.734 79.0193 131.251 78.0672 130.373L76.4212 128.856L82.5222 124.748L90.0548 130.806V135.939C90.0546 137.542 88.7008 138.897 87.0975 138.897Z" fill="#1A1A1A"/>
<path d="M70.777 118.151C71.2336 118.76 71.9271 119.078 72.6309 119.078C73.1219 119.078 73.6197 118.924 74.0454 118.604C75.0811 117.828 75.2791 116.342 74.5019 115.307C73.7271 114.274 72.2601 114.061 71.2209 114.839C70.1852 115.615 69.9757 117.084 70.7529 118.12L70.777 118.151Z" fill="#1A1A1A"/>
<path d="M36.5273 101.793H7.64578C3.42984 101.793 0 105.226 0 109.446V135.939C0 140.155 3.42984 143.585 7.64578 143.585H36.5273C40.748 143.585 44.1811 140.155 44.1811 135.939V109.446C44.1811 105.226 40.7477 101.793 36.5273 101.793ZM39.4936 135.939C39.4936 137.57 38.1626 138.897 36.5273 138.897H7.64578C6.015 138.897 4.6875 137.57 4.6875 135.939V109.446C4.6875 107.81 6.015 106.481 7.64578 106.481H36.5273C38.1628 106.481 39.4936 107.811 39.4936 109.446V135.939Z" fill="#1A1A1A"/>
<path d="M137.659 101.793H108.777C104.561 101.793 101.131 105.226 101.131 109.446V135.939C101.131 140.155 104.561 143.585 108.777 143.585H137.659C141.879 143.585 145.312 140.155 145.312 135.939V109.446C145.312 105.226 141.879 101.793 137.659 101.793ZM140.625 135.939C140.625 137.57 139.294 138.897 137.659 138.897H108.777C107.174 138.897 105.819 137.542 105.819 135.939V109.446C105.819 107.81 107.146 106.481 108.777 106.481H137.659C139.294 106.481 140.625 107.811 140.625 109.446V135.939Z" fill="#1A1A1A"/>
<path d="M131.435 112.26H115.009C113.714 112.26 112.665 113.31 112.665 114.604C112.665 115.898 113.714 116.948 115.009 116.948H120.878V130.781C120.878 132.075 121.928 133.125 123.222 133.125C124.516 133.125 125.566 132.075 125.566 130.781V116.948H131.435C132.73 116.948 133.779 115.898 133.779 114.604C133.779 113.31 132.73 112.26 131.435 112.26Z" fill="#1A1A1A"/>
<path d="M29.2922 119.376L18.157 112.847C16.9141 112.246 15.5946 112.286 14.527 112.954C13.5314 113.577 12.9133 114.679 12.9133 115.83V129.546C12.9133 130.694 13.5302 131.796 14.5223 132.421C15.0693 132.766 15.6827 132.944 16.342 132.944C16.9668 132.944 17.6329 132.784 18.3206 132.45L29.2108 126.055C30.4971 125.367 31.2811 124.062 31.2593 122.727C31.2813 121.323 30.4985 120.021 29.2922 119.376ZM17.6011 127.445V117.948L25.6851 122.693L17.6011 127.445Z" fill="#1A1A1A"/>
</svg>
