<svg width="146" height="141" viewBox="0 0 146 141" fill="none" xmlns="http://www.w3.org/2000/svg">
<path d="M133.4 43.7463H130.602V31.5012C130.602 26.6489 126.652 22.7006 121.795 22.7006H117.674V5.93039C117.674 2.65969 115.014 0 111.745 0H34.5464C31.2769 0 28.6172 2.65969 28.6172 5.93039V22.7006H24.4962C19.6392 22.7006 15.6888 26.6489 15.6888 31.5012V43.7463H11.9121C5.34328 43.7463 0 49.0908 0 55.6596V110.857C0 117.426 5.34328 122.77 11.9121 122.77H21.7793L18.7866 133.207C18.3436 134.756 18.6652 136.361 19.6929 137.723C20.9632 139.408 23.1787 140.497 25.3383 140.497H119.95C122.113 140.497 124.332 139.408 125.603 137.719C126.631 136.357 126.953 134.755 126.51 133.207L123.517 122.77H133.4C139.969 122.77 145.312 117.426 145.312 110.857V55.6596C145.312 49.0908 139.969 43.7463 133.4 43.7463ZM121.795 27.3881C124.066 27.3881 125.915 29.2329 125.915 31.5012V43.7463H117.674V27.3881H121.795ZM33.3047 5.93039C33.3047 5.2575 33.8735 4.6875 34.5464 4.6875H111.745C112.418 4.6875 112.987 5.2575 112.987 5.93039V43.7463H33.3047V5.93039ZM20.3761 31.5012C20.3761 29.2329 22.2244 27.3881 24.4959 27.3881H28.6172V43.7463H20.3761V31.5012ZM121.861 134.899C121.475 135.409 120.636 135.81 119.95 135.81H25.3383C24.6436 135.81 23.8266 135.418 23.4352 134.901C23.2486 134.654 23.2807 134.539 23.2934 134.498L32.7267 101.596H37.1304L30.3762 127.856C30.1955 128.556 30.3499 129.302 30.7927 129.874C31.2368 130.449 31.9209 130.783 32.6454 130.783H112.651C113.387 130.783 114.08 130.437 114.523 129.849C114.966 129.263 115.107 128.501 114.904 127.794L107.393 101.596H112.57L122.003 134.498C122.016 134.539 122.047 134.651 121.861 134.899ZM35.6679 126.096L37.9418 117.256L55.5441 109.028L71.3899 118.025L54.7584 126.096H35.6679ZM93.6562 112.626L107.719 119.741L109.541 126.096H65.4926L93.6562 112.626ZM94.7491 107.925C94.1002 107.6 93.3415 107.591 92.688 107.897L76.5199 115.549L56.8052 104.354C56.145 103.976 55.3427 103.949 54.656 104.267L39.4552 111.373L41.9702 101.596H102.516L105.956 113.595L94.7491 107.925ZM140.625 110.857C140.625 114.842 137.384 118.083 133.4 118.083H122.173L117.446 101.596H124.353C125.647 101.596 126.697 100.548 126.697 99.2524C126.697 97.957 125.647 96.9087 124.353 96.9087H20.9358C19.6416 96.9087 18.592 97.957 18.592 99.2524C18.592 100.548 19.6416 101.596 20.9358 101.596H27.8503L23.1232 118.083H11.9121C7.92844 118.083 4.6875 114.842 4.6875 110.857V55.6596C4.6875 51.6748 7.92844 48.4338 11.9121 48.4338H18.0323H30.9609H115.33H128.259H133.4C137.384 48.4338 140.625 51.6748 140.625 55.6596V110.857Z" fill="#1A1A1A"/>
<path d="M126.503 59.9878H116.829C115.535 59.9878 114.486 61.0362 114.486 62.3315C114.486 63.6269 115.535 64.6753 116.829 64.6753H126.503C127.797 64.6753 128.847 63.6269 128.847 62.3315C128.847 61.0362 127.797 59.9878 126.503 59.9878Z" fill="#1A1A1A"/>
<path d="M126.503 72.8051H116.829C115.535 72.8051 114.486 73.8534 114.486 75.1488C114.486 76.4442 115.535 77.4926 116.829 77.4926H126.503C127.797 77.4926 128.847 76.4442 128.847 75.1488C128.847 73.8534 127.797 72.8051 126.503 72.8051Z" fill="#1A1A1A"/>
</svg>
