<svg width="31" height="35" viewBox="0 0 31 35" fill="none" xmlns="http://www.w3.org/2000/svg">
<path fill-rule="evenodd" clip-rule="evenodd" d="M15.125 0C23.4648 0 30.25 6.6706 30.25 14.8707C30.25 24.9508 18.414 34.8825 15.125 34.8825C11.836 34.8825 0 24.9508 0 14.8707C0 6.6706 6.78517 0 15.125 0ZM15.125 2.68327C8.30133 2.68327 2.75 8.15176 2.75 14.8707C2.75 23.4195 13.0607 31.7484 15.125 32.192C17.1893 31.7466 27.5 23.4178 27.5 14.8707C27.5 8.15176 21.9487 2.68327 15.125 2.68327ZM15.1268 8.94422C18.4122 8.94422 21.0852 11.5524 21.0852 14.7598C21.0852 17.9654 18.4122 20.5717 15.1268 20.5717C11.8415 20.5717 9.1685 17.9654 9.1685 14.7598C9.1685 11.5524 11.8415 8.94422 15.1268 8.94422ZM15.1268 11.6275C13.3577 11.6275 11.9185 13.0317 11.9185 14.7598C11.9185 16.486 13.3577 17.8884 15.1268 17.8884C16.896 17.8884 18.3352 16.486 18.3352 14.7598C18.3352 13.0317 16.896 11.6275 15.1268 11.6275Z" fill="#1A1A1A"/>
</svg>
