<svg width="146" height="111" viewBox="0 0 146 111" fill="none" xmlns="http://www.w3.org/2000/svg">
<path d="M105.619 97.1283C104.422 97.6205 103.852 98.9913 104.344 100.189L104.36 100.227C104.731 101.127 105.594 101.663 106.508 101.663C106.809 101.663 107.116 101.605 107.412 101.482C108.609 100.99 109.171 99.6005 108.679 98.4033C108.184 97.2061 106.815 96.6408 105.619 97.1283Z" fill="#1A1A1A"/>
<path d="M113.189 97.3022C112.087 97.9819 111.746 99.4263 112.427 100.527L112.451 100.566C112.89 101.278 113.644 101.665 114.42 101.665C114.845 101.665 115.275 101.55 115.664 101.31C116.765 100.63 117.095 99.1655 116.414 98.0644C115.733 96.9612 114.29 96.6202 113.189 97.3022Z" fill="#1A1A1A"/>
<path d="M142.748 33.7807C146.369 29.8622 146.131 23.726 142.216 20.1005C140.322 18.3495 137.837 17.4591 135.262 17.5392C132.669 17.6377 130.277 18.7362 128.526 20.6313L128.516 20.6428C126.694 17.1298 123.059 14.7354 118.841 14.7354H103.774V2.34375C103.774 1.04836 102.724 0 101.43 0H47.8957C47.2364 0 46.6071 0.277032 46.163 0.764532L33.4296 14.7354H16.9327C10.9073 14.7354 6.00469 19.638 6.00469 25.6645V89.4181C2.61703 89.9194 0 92.8193 0 96.3455V103.347C0 107.229 3.15398 110.385 7.03008 110.385H128.745C132.621 110.385 135.775 107.229 135.775 103.347V96.3455C135.775 92.8193 133.158 89.9194 129.77 89.4181V47.8148L142.748 33.7807ZM125.764 45.243L105.827 66.8037L98.4888 60.0178L124.467 31.9245L131.803 38.7127L125.775 45.232C125.771 45.2358 125.768 45.2395 125.764 45.243ZM103.774 89.3142V73.5839L106.87 72.2738C106.871 72.2733 106.872 72.2716 106.873 72.2712C107.169 72.1453 107.445 71.9573 107.678 71.7061L115.429 63.3239V89.314L103.774 89.3142ZM96.2505 64.3327L101.7 69.3722L93.3942 72.8874L96.2505 64.3327ZM103.774 29.9353H115.429V34.7953L103.774 47.3991V29.9353ZM135.442 22.222C136.803 22.1784 138.059 22.6409 139.032 23.5404C141.052 25.4105 141.174 28.578 139.305 30.5991L134.986 35.2702L127.651 28.482L131.969 23.8127C132.868 22.8401 134.102 22.2748 135.442 22.222ZM118.841 19.4229C121.884 19.4229 124.401 21.5944 124.951 24.4983L120.116 29.7265V27.5918C120.116 26.2964 119.067 25.248 117.772 25.248H103.774V19.4229H118.841ZM99.0865 52.4681L93.4561 58.5572C93.2285 58.8033 93.0698 59.0859 92.9672 59.3838C92.9644 59.3923 92.9566 59.3979 92.9538 59.4063L87.8377 74.7253H71.7136C70.4194 74.7253 69.3698 75.7737 69.3698 77.0691C69.3698 78.3645 70.4194 79.4128 71.7136 79.4128H89.5263C89.8514 79.4128 90.1605 79.346 90.442 79.2265L99.0867 75.5679V89.3142H37.4187V18.7545H48.3947C49.6889 18.7545 50.7384 17.7061 50.7384 16.4107V4.68727H99.0862L99.0865 52.4681ZM84.6023 94.0017C84.3326 95.6923 82.8794 96.9909 81.1179 96.9909H54.6558C52.8952 96.9909 51.442 95.6923 51.1725 94.0017H84.6023ZM20.3466 89.3142V29.9353H32.7314V89.3142H20.3466ZM40.3826 14.067L46.0509 7.84688V14.067H40.3826ZM16.9327 19.4229H32.7312V25.248H18.0028C16.7086 25.248 15.6591 26.2964 15.6591 27.5918V89.3145H10.6922V25.6645C10.6922 22.222 13.4913 19.4229 16.9327 19.4229ZM131.088 96.3455V103.347C131.088 104.642 130.037 105.698 128.745 105.698H7.03008C5.73797 105.698 4.6875 104.642 4.6875 103.347V96.3455C4.6875 95.0522 5.73797 94.0017 7.03008 94.0017H46.4852C46.7782 98.2786 50.3105 101.678 54.6558 101.678H81.1179C85.4644 101.678 88.9966 98.2786 89.2896 94.0017H128.745C130.037 94.0017 131.088 95.0522 131.088 96.3455ZM125.083 89.3142H120.116V58.2551L125.083 52.8839V89.3142Z" fill="#1A1A1A"/>
<path d="M77.9674 60.3354H48.563C47.2688 60.3354 46.2192 61.3837 46.2192 62.6791C46.2192 63.9745 47.2688 65.0229 48.563 65.0229H77.9674C79.2617 65.0229 80.3112 63.9745 80.3112 62.6791C80.3112 61.3837 79.2619 60.3354 77.9674 60.3354Z" fill="#1A1A1A"/>
<path d="M77.9674 48.8091H48.563C47.2688 48.8091 46.2192 49.8574 46.2192 51.1528C46.2192 52.4482 47.2688 53.4966 48.563 53.4966H77.9674C79.2617 53.4966 80.3112 52.4482 80.3112 51.1528C80.3112 49.8574 79.2619 48.8091 77.9674 48.8091Z" fill="#1A1A1A"/>
<path d="M46.2192 39.1043C46.2192 40.3997 47.2688 41.4481 48.563 41.4481H77.9674C79.2617 41.4481 80.3112 40.3997 80.3112 39.1043C80.3112 37.8089 79.2617 36.7606 77.9674 36.7606H48.563C47.2688 36.7606 46.2192 37.8089 46.2192 39.1043Z" fill="#1A1A1A"/>
<path d="M48.563 25.2478C47.2688 25.2478 46.2192 26.2962 46.2192 27.5916C46.2192 28.8869 47.2688 29.9353 48.563 29.9353H67.5258C68.82 29.9353 69.8696 28.8869 69.8696 27.5916C69.8696 26.2962 68.82 25.2478 67.5258 25.2478H48.563Z" fill="#1A1A1A"/>
</svg>
