<svg width="143" height="146" viewBox="0 0 143 146" fill="none" xmlns="http://www.w3.org/2000/svg">
<path d="M4.76531 82.7923H13.9411C16.5698 82.7923 18.7076 80.6498 18.7076 78.0178V16.9477C18.7076 16.5963 18.6286 16.2495 18.4765 15.9326L11.4623 1.32867C11.0721 0.516094 10.2506 0 9.34992 0C8.44805 0 7.62633 0.517266 7.23609 1.32984L0.231094 15.9338C0.0789844 16.2506 0 16.5963 0 16.9477V78.0178C0 80.6498 2.13773 82.7923 4.76531 82.7923ZM13.9413 78.1048H4.76555L4.75805 72.2705H13.9488L13.9413 78.1048ZM9.35109 7.76016L12.6377 14.6039H6.06797L9.35109 7.76016ZM14.0168 19.2914L13.9547 67.583H4.75195L4.68984 19.2914H14.0168Z" fill="#1A1A1A"/>
<path d="M63.9874 50.9627H38.6123C37.3181 50.9627 36.2686 52.0122 36.2686 53.3065C36.2686 54.6007 37.3181 55.6502 38.6123 55.6502H63.9874C65.2816 55.6502 66.3312 54.6007 66.3312 53.3065C66.3312 52.0122 65.2816 50.9627 63.9874 50.9627Z" fill="#1A1A1A"/>
<path d="M63.9874 61.3139H38.6123C37.3181 61.3139 36.2686 62.3634 36.2686 63.6577C36.2686 64.9519 37.3181 66.0014 38.6123 66.0014H63.9874C65.2816 66.0014 66.3312 64.9519 66.3312 63.6577C66.3312 62.3634 65.2816 61.3139 63.9874 61.3139Z" fill="#1A1A1A"/>
<path d="M27.9373 120.83H12.9776C11.6834 120.83 10.6338 121.88 10.6338 123.174C10.6338 124.468 11.6834 125.518 12.9776 125.518H27.9373C29.2315 125.518 30.281 124.468 30.281 123.174C30.281 121.88 29.2317 120.83 27.9373 120.83Z" fill="#1A1A1A"/>
<path d="M27.9373 129.092H12.9776C11.6834 129.092 10.6338 130.141 10.6338 131.435C10.6338 132.73 11.6834 133.779 12.9776 133.779H27.9373C29.2315 133.779 30.281 132.73 30.281 131.435C30.281 130.141 29.2317 129.092 27.9373 129.092Z" fill="#1A1A1A"/>
<path d="M59.3822 121.654L59.3662 121.67C58.4508 122.586 58.4587 124.061 59.3742 124.976C59.8296 125.432 60.4282 125.659 61.028 125.659C61.6322 125.659 62.2376 125.428 62.6965 124.968C63.612 124.053 63.612 122.57 62.6965 121.654C61.781 120.738 60.2979 120.739 59.3822 121.654Z" fill="#1A1A1A"/>
<path d="M62.6965 111.522C61.781 110.606 60.2979 110.606 59.3822 111.522L49.2497 121.654C48.3342 122.569 48.3342 124.053 49.2497 124.968L59.3822 135.101C59.8399 135.559 60.4397 135.788 61.0392 135.788C61.6388 135.788 62.2385 135.559 62.6963 135.101L72.8288 124.968C73.7442 124.053 73.7442 122.57 72.8288 121.654L62.6965 111.522ZM61.0395 130.13L54.221 123.311L61.0395 116.493L67.8579 123.311L61.0395 130.13Z" fill="#1A1A1A"/>
<path d="M140.115 37.7344H133.201V26.7422C133.201 26.133 132.967 25.5471 132.545 25.125L109.272 0.820313C108.826 0.351563 108.217 0.09375 107.584 0.09375H27.0061C25.717 0.09375 24.6623 1.14844 24.6623 2.4375V90.4687H7.20141C3.24047 90.4687 0.00609589 93.7031 0.00609589 97.6875V138.117C0.00609589 142.078 3.24047 145.312 7.20141 145.312H74.4905C77.9592 145.312 80.8655 142.852 81.5452 139.594H130.858C132.147 139.594 133.201 138.539 133.201 137.25V81.3047H140.115C141.405 81.3047 142.459 80.25 142.459 78.9609V40.0781C142.459 38.7891 141.405 37.7344 140.115 37.7344ZM109.928 8.27344L125.35 24.3982H109.928V8.27344ZM70.2157 95.1562L40.8473 110.533L11.4802 95.1562H70.2157ZM76.9983 138.117C76.9983 138.68 76.8108 139.172 76.5295 139.594C76.0608 140.227 75.3108 140.625 74.4905 140.625H7.20141C5.8186 140.625 4.6936 139.5 4.6936 138.117V97.6875C4.6936 97.4339 4.76813 97.2014 4.83844 96.9691L39.7603 115.255C40.1013 115.433 40.4745 115.522 40.8476 115.522C41.2207 115.522 41.5948 115.433 41.9348 115.255L76.8541 96.971C76.9237 97.2028 76.9983 97.4344 76.9983 97.6875V138.117ZM128.514 134.906H81.6858V97.6875C81.6858 93.7031 78.4748 90.4687 74.4905 90.4687H29.3498V4.78125H105.24V26.7422C105.24 28.0312 106.295 29.0859 107.584 29.0859H128.514V37.7344H77.467C76.178 37.7344 75.1235 38.7891 75.1235 40.0781V78.9609C75.1235 80.25 76.1782 81.3047 77.467 81.3047H128.514V134.906ZM137.772 76.6172H79.8108V42.4219H137.772V76.6172Z" fill="#1A1A1A"/>
<path d="M115.484 57.7399H131.156C132.45 57.7399 133.5 56.6904 133.5 55.3962C133.5 54.102 132.45 53.0524 131.156 53.0524H115.484C114.189 53.0524 113.14 54.102 113.14 55.3962C113.14 56.6904 114.189 57.7399 115.484 57.7399Z" fill="#1A1A1A"/>
<path d="M115.484 66.0014H131.156C132.45 66.0014 133.5 64.9519 133.5 63.6577C133.5 62.3634 132.45 61.3139 131.156 61.3139H115.484C114.189 61.3139 113.14 62.3634 113.14 63.6577C113.14 64.9519 114.189 66.0014 115.484 66.0014Z" fill="#1A1A1A"/>
<path d="M97.8321 57.8613C96.9166 56.9459 95.4335 56.9459 94.5178 57.8613L94.5098 57.8693C93.5944 58.7848 93.5988 60.2646 94.5134 61.1801C94.9699 61.6367 95.5697 61.8645 96.1692 61.8645C96.7711 61.8645 97.3732 61.6346 97.8321 61.1756C98.7476 60.2599 98.7476 58.7768 97.8321 57.8613Z" fill="#1A1A1A"/>
<path d="M94.5295 71.2969C94.9514 71.7422 95.5608 72 96.1702 72C96.803 72 97.3889 71.7422 97.8342 71.2969L107.959 61.1719C108.873 60.2578 108.873 58.7813 107.959 57.8672L97.8342 47.7188C97.3889 47.2969 96.803 47.0391 96.1702 47.0391C95.5608 47.0391 94.9514 47.2969 94.5295 47.7188L84.3811 57.8672C83.467 58.7813 83.467 60.2578 84.3811 61.1719L94.5295 71.2969ZM96.1702 52.7109L102.99 59.5078L96.1702 66.3281L89.3498 59.5078L96.1702 52.7109Z" fill="#1A1A1A"/>
<path d="M49.6467 27.7554L49.6308 27.7713C48.7153 28.6868 48.7233 30.162 49.6387 31.0774C50.0941 31.5328 50.6927 31.7606 51.2925 31.7606C51.8967 31.7606 52.5021 31.5295 52.961 31.0695C53.8765 30.154 53.8765 28.6709 52.961 27.7552C52.0455 26.8395 50.5624 26.8399 49.6467 27.7554Z" fill="#1A1A1A"/>
<path d="M52.961 15.072C52.0455 14.1563 50.5624 14.1575 49.6467 15.0708L36.9553 27.7542C36.5159 28.1937 36.2686 28.79 36.2686 29.4125C36.2686 30.0338 36.5159 30.63 36.9553 31.0695L49.6467 43.7621C50.0862 44.2015 50.6824 44.4488 51.3037 44.4488C51.9262 44.4488 52.5225 44.2015 52.962 43.7621L65.6454 31.0695C66.5597 30.154 66.5597 28.6697 65.6442 27.7552L52.961 15.072ZM51.304 38.7898L41.9278 29.4136L51.304 20.0433L60.6734 29.4136L51.304 38.7898Z" fill="#1A1A1A"/>
</svg>
