<svg width="146" height="114" viewBox="0 0 146 114" fill="none" xmlns="http://www.w3.org/2000/svg">
<path d="M145.312 56.7577C145.312 55.8731 144.814 55.0638 144.024 54.6656L129.427 47.2983L144.024 39.9291C144.814 39.5309 145.312 38.7218 145.312 37.837C145.312 36.9523 144.814 36.1432 144.024 35.745L73.7067 0.252422C73.043 -0.0841406 72.2602 -0.0841406 71.5964 0.252422L1.28859 35.7452C0.498984 36.1434 0 36.9525 0 37.837C0 38.7216 0.498984 39.5309 1.28625 39.9291L15.8789 47.2971L1.28625 54.6656C0.498984 55.0638 0 55.8731 0 56.7577C0 57.6422 0.498984 58.4515 1.28625 58.8497L15.8728 66.2128L1.28625 73.5783C0.498984 73.9765 0 74.7855 0 75.6701C0 76.5546 0.498984 77.3639 1.28625 77.7621L71.5941 113.263C71.9283 113.431 72.2899 113.515 72.6516 113.515C73.0132 113.515 73.3748 113.431 73.7067 113.263L144.026 77.7621C144.814 77.3639 145.312 76.5548 145.312 75.6701C145.312 74.7853 144.814 73.9762 144.024 73.578L129.433 66.214L144.024 58.8495C144.814 58.4515 145.312 57.6422 145.312 56.7577ZM72.6516 4.96969L137.768 37.837L72.6516 70.7114L7.54406 37.837L72.6516 4.96969ZM124.233 68.8392L137.769 75.6703L72.6516 108.546L7.54406 75.6701L21.071 68.839L71.5966 94.3411C72.2604 94.6777 73.0432 94.6777 73.707 94.3411L124.233 68.8392ZM72.6516 89.6238L7.54406 56.7577L21.071 49.9266L65.2409 72.2206L71.5945 75.4287C71.7579 75.5109 71.9381 75.5098 72.1116 75.5517C72.6466 75.6818 73.2054 75.683 73.7072 75.4287L124.233 49.9266L137.766 56.7577L72.6516 89.6238Z" fill="#1A1A1A"/>
</svg>
