<svg width="40" height="35" viewBox="0 0 40 35" fill="none" xmlns="http://www.w3.org/2000/svg">
<path fill-rule="evenodd" clip-rule="evenodd" d="M28.7082 0C34.8132 0 39.4167 4.86029 39.4167 11.3055V23.5913C39.4167 26.8899 38.2213 29.8701 36.0488 31.9845C34.1 33.8789 31.5718 34.8825 28.7375 34.8825H10.6737C7.84483 34.8825 5.3185 33.8807 3.36783 31.9845C1.19533 29.8701 0 26.8899 0 23.5913V11.3055C0 4.86029 4.6035 0 10.7085 0H28.7082ZM28.7082 2.68327H10.7085C6.09767 2.68327 2.75 6.30925 2.75 11.3055V23.5913C2.75 26.1726 3.65933 28.4784 5.30933 30.083C6.732 31.4693 8.58917 32.1992 10.6792 32.1992H28.7082C28.7118 32.1956 28.7265 32.1992 28.7375 32.1992C30.8293 32.1992 32.6847 31.4693 34.1073 30.083C35.7592 28.4784 36.6667 26.1726 36.6667 23.5913V11.3055C36.6667 6.30925 33.319 2.68327 28.7082 2.68327ZM31.5975 10.9635C32.076 11.5377 31.9862 12.382 31.3977 12.8507L23.2503 19.312C22.22 20.1098 20.988 20.5087 19.7578 20.5087C18.5313 20.5087 17.3085 20.1134 16.2855 19.3227L8.063 12.8543C7.47083 12.3892 7.37917 11.5431 7.854 10.967C8.3325 10.3928 9.19783 10.3016 9.78817 10.7649L18.0033 17.2262C19.0355 18.024 20.4893 18.024 21.5288 17.2191L29.6615 10.7685C30.2518 10.298 31.1172 10.3875 31.5975 10.9635Z" fill="#1A1A1A"/>
</svg>
