<svg width="145" height="146" viewBox="0 0 145 146" fill="none" xmlns="http://www.w3.org/2000/svg">
<path d="M27.9157 123.395L28.0118 123.443C28.3425 123.608 28.6894 123.685 29.0304 123.685C29.8819 123.685 30.6945 123.198 31.1086 122.369C31.6877 121.213 31.1705 119.781 30.0122 119.202C28.8518 118.625 27.4453 119.094 26.8674 120.25C26.2884 121.408 26.7577 122.816 27.9157 123.395Z" fill="#1A1A1A"/>
<path d="M30.1633 129.172C29.0487 128.506 27.6124 128.874 26.9498 129.987C26.2884 131.099 26.6533 132.539 27.7648 133.2L27.8608 133.257C28.2293 133.477 28.6287 133.58 29.0212 133.58C29.8144 133.58 30.5833 133.157 31.0263 132.413C31.6877 131.3 31.2745 129.833 30.1633 129.172Z" fill="#1A1A1A"/>
<path d="M73.4403 133.23C72.2958 132.619 70.8757 133.063 70.2725 134.207C69.6682 135.352 70.1054 136.768 71.2498 137.373L71.3712 137.437C71.7122 137.617 72.0727 137.702 72.4252 137.702C73.2584 137.702 74.0536 137.231 74.4783 136.427C75.0825 135.283 74.5847 133.834 73.4403 133.23Z" fill="#1A1A1A"/>
<path d="M116.773 119.197C115.613 118.62 114.208 119.099 113.634 120.259C113.061 121.419 113.537 122.827 114.697 123.399L114.795 123.447C115.122 123.61 115.465 123.685 115.803 123.685C116.659 123.685 117.474 123.193 117.886 122.36C118.459 121.2 117.934 119.769 116.773 119.197Z" fill="#1A1A1A"/>
<path d="M116.923 129.165C115.808 128.506 114.371 128.881 113.715 129.998C113.059 131.113 113.432 132.55 114.548 133.207L114.645 133.264C115.01 133.479 115.405 133.58 115.794 133.58C116.591 133.58 117.363 133.152 117.804 132.404C118.46 131.287 118.039 129.822 116.923 129.165Z" fill="#1A1A1A"/>
<path d="M125.771 101.907V97.8277C129.526 94.459 131.947 89.2598 131.947 83.4227C131.947 73.2902 124.675 65.047 115.736 65.047C115.15 65.047 114.58 65.1195 114.011 65.1886C116.795 59.1771 118.257 52.6146 118.257 45.9035C118.256 20.5924 97.6605 0 72.345 0C47.0294 0 26.4349 20.5924 26.4349 45.9033C26.4349 52.5959 27.8918 59.1448 30.6689 65.1506C30.1083 65.0838 29.5399 65.047 28.9641 65.047C20.0205 65.047 12.7444 73.2902 12.7444 83.4227C12.7444 89.288 15.1912 94.5077 18.9795 97.8748C18.9696 97.9613 18.9286 98.0369 18.9286 98.126V101.907C8.15625 103.905 0 113.495 0 124.626V139.19C0 140.485 1.04953 141.534 2.34375 141.534H38.8985V142.969C38.8985 144.264 39.948 145.312 41.2423 145.312H103.449C104.743 145.312 105.793 144.264 105.793 142.969V141.534H142.355C143.65 141.534 144.699 140.485 144.699 139.19V124.626C144.699 113.496 136.543 103.905 125.771 101.907ZM126.392 106.864L122.434 112.383L119.514 110.124L124.113 106.407C124.889 106.515 125.651 106.661 126.392 106.864ZM55.5724 114.564C53.1195 109.534 48.9441 105.614 43.9027 103.438C43.8827 103.433 43.8649 103.42 43.845 103.415C42.2958 102.752 40.6842 102.216 38.9995 101.905V97.8272C42.754 94.4585 45.1748 89.2596 45.1748 83.4227C45.1748 83.2226 45.154 83.0283 45.1484 82.8295C47.948 84.8981 50.9571 86.6496 54.1687 88.0481L54.2259 94.9493C54.2259 101.367 57.0127 106.085 61.0191 109.032V112.976C59.1237 113.302 57.3082 113.855 55.5724 114.564ZM37.3193 106.425C38.0967 106.532 38.861 106.676 39.6084 106.88L35.6611 112.384L32.7429 110.124L37.3193 106.425ZM68.4851 79.9575C68.0353 79.4287 67.3807 79.1313 66.6998 79.1313C66.5728 79.1313 66.4434 79.1428 66.3152 79.1634C65.5027 79.2984 64.8206 79.8502 64.5185 80.6168C62.9243 84.6703 60.8484 85.8171 58.8251 86.142V84.3293C58.8251 76.8586 62.0637 72.4411 67.9437 71.8896C69.7153 71.7248 71.5601 71.8003 73.5077 71.8828C77.8153 72.0579 82.6802 72.2639 88.2455 69.8653C89.0923 70.6378 90.6499 73.3088 90.9656 76.8406C91.2129 79.5963 90.754 83.4049 87.3173 86.2704C79.1714 86.2634 73.6852 86.0709 68.4851 79.9575ZM85.7782 90.949V94.9493C85.7782 103.89 78.8156 107.961 72.3452 107.961C65.8758 107.961 58.9132 103.89 58.9132 94.9493V90.8627C61.4613 90.592 64.759 89.5423 67.32 85.4691C72.8531 90.3989 78.9506 90.8979 85.7782 90.949ZM62.6742 117.491L68.5676 122.26L64.4374 125.455L59.2434 118.214C60.3518 117.879 61.4998 117.645 62.6742 117.491ZM65.7063 113.915V111.514C67.8298 112.267 70.0908 112.649 72.345 112.649C74.6027 112.649 76.8668 112.266 78.9928 111.51V113.916L72.3462 119.287L65.7063 113.915ZM82.0235 117.491C83.1959 117.644 84.3424 117.878 85.4491 118.212L80.254 125.455L76.1238 122.26L82.0235 117.491ZM83.6805 112.976V109.025C87.6825 106.078 90.4657 101.362 90.4657 94.9493V89.7157C91.497 88.8345 92.3327 87.877 93.03 86.8777C95.3133 85.7262 97.4843 84.382 99.5414 82.8741C99.5365 83.0578 99.517 83.2373 99.517 83.4227C99.517 89.2622 101.942 94.4632 105.701 97.8316C105.701 97.9305 105.7 98.0323 105.7 98.126V101.905C104.016 102.216 102.405 102.751 100.856 103.415C100.831 103.42 100.809 103.437 100.784 103.443C95.7487 105.62 91.5581 109.534 89.0995 114.553C87.372 113.849 85.5659 113.301 83.6805 112.976ZM107.38 106.425L111.956 110.124L109.038 112.384L105.091 106.88C105.839 106.676 106.603 106.532 107.38 106.425ZM110.388 102.831V100.752C112.065 101.419 113.86 101.8 115.735 101.8C117.611 101.8 119.406 101.418 121.083 100.751V102.831L115.735 107.153L110.388 102.831ZM115.735 97.1123C110.386 97.1123 105.889 92.7595 104.592 86.8847C107.105 86.5713 110.269 85.4702 112.744 81.5278C117.279 85.5539 122.131 86.5779 126.874 86.8734C125.582 92.7537 121.085 97.1123 115.735 97.1123ZM115.735 69.7345C121.742 69.7345 126.684 75.2224 127.207 82.1986C121.669 81.8372 117.711 80.4872 113.903 76.0163C113.37 75.3914 112.549 75.0961 111.732 75.2243C110.919 75.3593 110.239 75.9131 109.938 76.68C108.35 80.7241 106.278 81.8623 104.257 82.1892C104.785 75.2175 109.728 69.7345 115.735 69.7345ZM107.285 67.7747C104.681 69.5932 102.555 72.2093 101.194 75.3361C99.4545 77.0381 97.5795 78.5695 95.5891 79.9301C95.831 77.693 95.617 75.4793 95.1241 73.4871C102.805 67.1484 107.406 58.1353 108.045 48.2468H113.486C113.095 55.1895 110.976 61.8888 107.285 67.7747ZM74.6888 4.80633C95.5474 5.98758 112.268 22.7055 113.45 43.5598H108.055C106.889 25.68 92.5727 11.3667 74.6888 10.2012V4.80633ZM72.345 27.1134C73.6392 27.1134 74.6888 26.0639 74.6888 24.7697V14.8884C89.9897 16.0359 102.22 28.2628 103.368 43.5595H93.487C92.1928 43.5595 91.1433 44.6091 91.1433 45.9033C91.1433 47.1975 92.1928 48.247 93.487 48.247H103.365C102.774 56.2151 99.221 63.5163 93.3141 68.8882C93.2995 68.8634 93.2864 68.8345 93.2719 68.8099C90.522 64.1327 87.6609 64.9854 86.8484 65.3573C82.0739 67.5455 78.0066 67.3748 73.7037 67.1986C71.6871 67.1161 69.6033 67.028 67.5077 67.2227C62.9887 67.6465 59.4963 69.7498 57.199 73.1154C48.105 68.0339 42.1022 58.6261 41.3093 48.2473H51.2126C52.5068 48.2473 53.5563 47.1977 53.5563 45.9035C53.5563 44.6093 52.5068 43.5598 51.2126 43.5598H41.3316C42.4793 28.2633 54.7059 16.0366 70.0013 14.8884V24.7695C70.0013 26.0639 71.0508 27.1134 72.345 27.1134ZM70.0013 4.80633V10.2012C52.1217 11.367 37.8094 25.6802 36.6438 43.5598H31.241C32.4227 22.7053 49.1437 5.98734 70.0013 4.80633ZM36.6059 48.247C37.4133 60.4125 44.4544 71.4555 55.148 77.3278C54.6188 79.009 54.2953 80.8711 54.1875 82.894C50.2512 80.9576 46.6589 78.4341 43.4927 75.3232C42.132 72.1999 40.0165 69.5822 37.4107 67.7686C33.7177 61.8778 31.5982 55.1798 31.2045 48.247H36.6059ZM28.9641 69.7345C34.9702 69.7345 39.9112 75.2227 40.4348 82.1988C34.898 81.8381 30.9401 80.4886 27.1305 76.0163C26.5973 75.3914 25.7801 75.0961 24.9595 75.2243C24.147 75.3593 23.4661 75.9131 23.1652 76.68C21.5775 80.7241 19.5056 81.8623 17.4844 82.1892C18.0122 75.2175 22.9563 69.7345 28.9641 69.7345ZM17.8198 86.8847C20.3325 86.5713 23.4959 85.4702 25.9713 81.5278C30.5077 85.5558 35.359 86.5788 40.1016 86.8739C38.809 92.7541 34.3127 97.1123 28.9638 97.1123C23.6147 97.1123 19.1168 92.7593 17.8198 86.8847ZM28.9641 101.8C30.84 101.8 32.6346 101.418 34.3118 100.751V102.831L28.9641 107.153L23.6163 102.831V100.752C25.2935 101.419 27.0881 101.8 28.9641 101.8ZM20.5861 106.407L25.185 110.124L22.2656 112.383L18.307 106.864C19.0486 106.661 19.8108 106.515 20.5861 106.407ZM4.68773 124.626C4.68773 117.94 8.38875 111.965 13.8832 108.739L19.8729 117.089C20.2437 117.606 20.809 117.95 21.4385 118.041C21.5508 118.057 21.664 118.066 21.7772 118.066C22.2933 118.066 22.7979 117.897 23.2111 117.577L28.9638 113.128L34.7159 117.577C35.1291 117.897 35.6337 118.066 36.1498 118.066C36.262 118.066 36.3764 118.057 36.4884 118.041C37.118 117.95 37.6833 117.607 38.0541 117.089L44.055 108.723C47.2113 110.566 49.777 113.345 51.3975 116.72C44.5298 121.077 39.761 128.461 39.0063 136.846H16.7337V129.181C16.7337 127.886 15.6841 126.837 14.3899 126.837C13.0957 126.837 12.0462 127.886 12.0462 129.181V136.846H4.68773V124.626ZM101.105 140.625H43.586V139.19C43.586 131.109 48.1294 123.905 54.8362 120.112L62.0442 130.163C62.415 130.68 62.9803 131.024 63.6098 131.115C63.723 131.131 63.8365 131.14 63.9485 131.14C64.4646 131.14 64.9692 130.971 65.3824 130.65L72.3452 125.264L79.3088 130.65C79.722 130.971 80.2266 131.14 80.7427 131.14C80.8549 131.14 80.9681 131.131 81.0813 131.115C81.7109 131.024 82.2762 130.68 82.647 130.163L89.8561 120.11C96.562 123.903 101.105 131.108 101.105 139.19V140.625ZM140.012 136.846H132.645V129.181C132.645 127.886 131.595 126.837 130.301 126.837C129.007 126.837 127.958 127.886 127.958 129.181V136.846H105.685C104.93 128.45 100.151 121.057 93.2712 116.703C94.897 113.331 97.4885 110.565 100.644 108.723L106.645 117.089C107.016 117.606 107.581 117.95 108.211 118.041C108.324 118.057 108.436 118.066 108.55 118.066C109.066 118.066 109.57 117.897 109.984 117.577L115.736 113.128L121.488 117.577C121.901 117.897 122.406 118.066 122.922 118.066C123.035 118.066 123.149 118.057 123.261 118.041C123.89 117.95 124.456 117.607 124.826 117.089L130.816 108.739C136.311 111.966 140.012 117.941 140.012 124.626V136.846Z" fill="#1A1A1A"/>
</svg>
