<svg width="38" height="38" viewBox="0 0 38 38" fill="none" xmlns="http://www.w3.org/2000/svg">
<path fill-rule="evenodd" clip-rule="evenodd" d="M4.32514 5.61239C4.32881 5.61239 4.23714 5.70772 4.12164 5.82139C3.67797 6.25222 2.75947 7.14872 2.75022 9.02422C2.73564 11.6477 4.46081 16.5189 12.7676 24.8239C21.036 33.0886 25.8998 34.8339 28.5288 34.8339H28.5673C30.4428 34.8247 31.3375 33.9044 31.7701 33.4626C31.9021 33.3269 32.0085 33.2279 32.0836 33.1656C33.9096 31.3286 34.8446 29.9609 34.8355 29.0846C34.8226 28.1899 33.7098 27.1321 32.1716 25.6691C31.6821 25.2034 31.1505 24.6974 30.5895 24.1364C29.1356 22.6862 28.4151 22.9337 26.8311 23.4911C24.6403 24.2592 21.6336 25.3042 16.9623 20.6311C12.2836 15.9561 13.3305 12.9531 14.0968 10.7622C14.6505 9.17822 14.9035 8.45589 13.4478 7.00022C12.8776 6.43189 12.3661 5.89289 11.895 5.39789C10.4411 3.86889 9.39248 2.76339 8.50331 2.75055H8.48864C7.61047 2.75055 6.24647 3.68922 4.31597 5.61972C4.32147 5.61422 4.32331 5.61239 4.32514 5.61239ZM28.5306 37.5839C23.962 37.5839 18.0055 33.9466 10.8243 26.7691C3.61564 19.5622 -0.0271927 13.5874 0.000152813 9.00955C0.0168074 5.98455 1.60264 4.43539 2.19847 3.85422C2.22964 3.81572 2.33597 3.71122 2.37264 3.67455C5.00164 1.04372 6.77447 -0.0196121 8.53814 0.000273418C10.586 0.0280545 12.0435 1.56072 13.8878 3.50222C14.3443 3.98255 14.8393 4.50505 15.3911 5.05505C18.0678 7.73172 17.3051 9.91522 16.6928 11.6679C16.0255 13.5801 15.448 15.2301 18.9056 18.6877C22.367 22.1454 24.017 21.5679 25.9218 20.8951C27.6763 20.2827 29.8543 19.5164 32.5346 22.1931C33.0773 22.7357 33.5925 23.2252 34.0673 23.6781C36.018 25.5316 37.558 26.9964 37.584 29.0497C37.6056 30.8006 36.5423 32.5844 33.917 35.2116L32.7546 34.4232L33.7373 35.3839C33.1561 35.9797 31.6088 37.5674 28.582 37.5839H28.5306Z" fill="#1A1A1A"/>
</svg>
