<svg width="27" height="27" viewBox="0 0 27 27" fill="none" xmlns="http://www.w3.org/2000/svg">
<path d="M13.3333 0C20.7067 0 26.6667 5.97333 26.6667 13.3333C26.6667 20.7067 20.7067 26.6667 13.3333 26.6667C5.97333 26.6667 0 20.7067 0 13.3333C0 5.97333 5.97333 0 13.3333 0ZM12.8667 6.57333C12.32 6.57333 11.8667 7.01333 11.8667 7.57333V14.3067C11.8667 14.6533 12.0533 14.9733 12.36 15.16L17.5867 18.28C17.7467 18.3733 17.92 18.4267 18.1067 18.4267C18.44 18.4267 18.7733 18.2533 18.96 17.9333C19.24 17.4667 19.0933 16.8533 18.6133 16.56L13.8667 13.7333V7.57333C13.8667 7.01333 13.4133 6.57333 12.8667 6.57333Z" fill="black"/>
</svg>
