<svg width="146" height="146" viewBox="0 0 146 146" fill="none" xmlns="http://www.w3.org/2000/svg">
<path d="M108.684 32.0583H36.6234C35.3281 32.0583 34.2797 33.1078 34.2797 34.402V55.6891C34.2797 56.9834 35.3281 58.0329 36.6234 58.0329H49.4958C50.7912 58.0329 51.8395 56.9834 51.8395 55.6891V49.6193H63.8742V95.6932H57.9898C56.6944 95.6932 55.646 96.7416 55.646 98.037V110.912C55.646 112.207 56.6944 113.255 57.9898 113.255H87.3117C88.6071 113.255 89.6555 112.207 89.6555 110.912V98.037C89.6555 96.7416 88.6071 95.6932 87.3117 95.6932H81.4341V49.6193H93.4688V55.6891C93.4688 56.9834 94.5171 58.0329 95.8125 58.0329H108.685C109.98 58.0329 111.029 56.9834 111.029 55.6891V34.402C111.028 33.1078 109.98 32.0583 108.684 32.0583ZM106.341 53.3454H98.1558V47.2756C98.1558 45.9813 97.1074 44.9318 95.812 44.9318H79.0898C77.7945 44.9318 76.7461 45.9813 76.7461 47.2756V98.037C76.7461 99.3324 77.7945 100.381 79.0898 100.381H84.9675V108.568H60.3333V100.381H66.2177C67.5131 100.381 68.5615 99.3324 68.5615 98.037V47.2756C68.5615 45.9813 67.5131 44.9318 66.2177 44.9318H49.4956C48.2002 44.9318 47.1518 45.9813 47.1518 47.2756V53.3454H38.9672V36.7458H106.341V53.3454Z" fill="#1A1A1A"/>
<path d="M142.964 20.5043C144.259 20.5043 145.308 19.4548 145.308 18.1605V2.34375C145.308 1.04953 144.259 0 142.964 0H127.139C125.844 0 124.795 1.04953 124.795 2.34375V7.90781H82.9008V2.34375C82.9008 1.04953 81.8524 0 80.557 0H64.7414C63.446 0 62.3977 1.04953 62.3977 2.34375V7.90781H20.5031V2.34375C20.5031 1.04953 19.4548 0 18.1594 0H2.34375C1.04836 0 0 1.04953 0 2.34375V18.1605C0 19.4548 1.04836 20.5043 2.34375 20.5043H7.90781V62.4H2.34375C1.04836 62.4 0 63.4495 0 64.7438V80.5594C0 81.8548 1.04836 82.9031 2.34375 82.9031H7.90781V124.8H2.34375C1.04836 124.8 0 125.848 0 127.144V142.969C0 144.264 1.04836 145.312 2.34375 145.312H18.1594C19.4548 145.312 20.5031 144.264 20.5031 142.969V137.405H62.3977V142.969C62.3977 144.264 63.446 145.312 64.7414 145.312H80.557C81.8524 145.312 82.9008 144.264 82.9008 142.969V137.405H124.795V142.969C124.795 144.264 125.844 145.312 127.139 145.312H142.964C144.259 145.312 145.308 144.264 145.308 142.969V127.144C145.308 125.848 144.259 124.8 142.964 124.8H137.4V82.9031H142.964C144.259 82.9031 145.308 81.8548 145.308 80.5594V64.7438C145.308 63.4495 144.259 62.4 142.964 62.4H137.4V20.5043H142.964ZM129.483 4.6875H140.621V15.8168H129.483V4.6875ZM67.0852 4.6875H78.2133V15.8168H67.0852V4.6875ZM4.6875 4.6875H15.8156V15.8168H4.6875V4.6875ZM4.6875 67.0875H15.8156V78.2156H4.6875V67.0875ZM15.8156 140.625H4.6875V129.488H15.8156V140.625ZM78.2135 140.625H67.0854V129.488H78.2135V140.625ZM140.62 140.625H129.483V129.488H140.62V140.625ZM140.62 78.2159H129.483V67.0877H140.62V78.2159ZM132.712 62.4H127.139C125.844 62.4 124.796 63.4495 124.796 64.7438V80.5594C124.796 81.8548 125.844 82.9031 127.139 82.9031H132.712V124.8H127.139C125.844 124.8 124.796 125.848 124.796 127.144V132.717H82.901V127.144C82.901 125.848 81.8527 124.8 80.5573 124.8H64.7416C63.4463 124.8 62.3979 125.848 62.3979 127.144V132.717H20.5031V127.144C20.5031 125.848 19.4548 124.8 18.1594 124.8H12.5953V82.9031H18.1594C19.4548 82.9031 20.5031 81.8548 20.5031 80.5594V64.7438C20.5031 63.4495 19.4548 62.4 18.1594 62.4H12.5953V20.5043H18.1594C19.4548 20.5043 20.5031 19.4548 20.5031 18.1605V12.5953H62.3977V18.1605C62.3977 19.4548 63.446 20.5043 64.7414 20.5043H80.557C81.8524 20.5043 82.9008 19.4548 82.9008 18.1605V12.5953H124.795V18.1605C124.795 19.4548 125.844 20.5043 127.139 20.5043H132.712L132.712 62.4Z" fill="#1A1A1A"/>
</svg>
